<?xml version="1.0" standalone="no"?>
<!DOCTYPE svg PUBLIC "-//W3C//DTD SVG 20010904//EN"
 "http://www.w3.org/TR/2001/REC-SVG-20010904/DTD/svg10.dtd">
<svg version="1.0" xmlns="http://www.w3.org/2000/svg"
 width="220.000000pt" height="75.000000pt" viewBox="0 0 220.000000 75.000000"
 preserveAspectRatio="xMidYMid meet">

<g transform="translate(0.000000,75.000000) scale(0.100000,-0.100000)"
fill="#000000" stroke="none">
<path d="M50 370 l0 -330 215 0 215 0 0 330 0 330 -215 0 -215 0 0 -330z m216
64 l79 -116 3 116 3 116 34 0 35 0 0 -190 0 -190 -29 0 c-26 0 -39 13 -109
113 -43 61 -84 121 -91 132 -10 16 -11 -5 -8 -112 l4 -133 -36 0 -36 0 2 187
c1 104 3 189 3 191 0 1 15 2 33 2 32 0 38 -7 113 -116z"/>
<path d="M597 553 c-3 -5 -2 -15 4 -23 12 -20 12 -307 -1 -330 -9 -16 -7 -17
18 -11 25 7 27 11 22 52 -6 58 -6 223 0 274 4 35 2 40 -17 43 -11 2 -23 -1
-26 -5z"/>
<path d="M1618 533 c-2 -16 1 -44 6 -63 4 -19 6 -90 3 -158 l-5 -122 27 1 c14
1 47 -3 74 -9 26 -5 47 -6 47 -2 0 4 11 12 25 18 33 15 58 67 60 127 1 44 -3
54 -31 83 -27 26 -41 32 -74 32 -23 0 -51 -5 -62 -11 -29 -15 -38 2 -38 74 0
43 -4 57 -14 57 -8 0 -16 -12 -18 -27z m174 -140 c16 -17 23 -38 25 -79 2 -48
-1 -58 -26 -86 -34 -38 -87 -44 -121 -13 -17 15 -20 30 -20 96 0 67 3 80 20
92 33 23 95 18 122 -10z"/>
<path d="M2010 450 c0 -3 -15 -10 -32 -15 -27 -8 -38 -21 -61 -67 l-28 -58 23
-47 c14 -30 34 -54 53 -63 17 -8 31 -18 33 -21 3 -6 12 -5 85 6 54 9 46 24 -9
17 -56 -6 -102 15 -127 58 -30 50 -16 60 84 60 l89 0 0 38 c0 41 -31 82 -63
82 -9 0 -17 4 -17 8 0 5 -7 9 -15 9 -8 0 -15 -3 -15 -7z m61 -41 c13 -13 19
-30 17 -47 -3 -26 -4 -27 -73 -27 -63 0 -70 2 -73 21 -2 11 7 32 18 47 27 34
80 37 111 6z"/>
<path d="M1065 436 c-9 -10 -11 -79 -6 -208 1 -27 6 -38 16 -38 12 0 15 17 15
95 0 84 2 96 22 115 33 30 91 27 117 -6 17 -22 21 -41 21 -108 0 -45 -4 -86
-9 -91 -6 -6 0 -10 17 -10 l27 0 -5 108 c-5 99 -7 111 -29 128 -28 23 -81 25
-121 4 -27 -14 -30 -13 -42 4 -9 13 -16 15 -23 7z"/>
<path d="M720 430 c-11 -7 3 -10 48 -10 69 0 106 -23 100 -63 -2 -18 -10 -22
-35 -22 -18 0 -33 -3 -33 -7 0 -5 -11 -8 -24 -8 -39 0 -76 -36 -76 -75 0 -58
54 -80 125 -51 19 8 35 11 35 5 0 -5 8 -9 18 -9 15 0 17 12 16 106 0 99 -2
108 -23 125 -26 21 -124 27 -151 9z m138 -122 c19 -19 14 -69 -10 -89 -32 -29
-93 -25 -114 6 -15 23 -15 27 0 50 9 14 21 23 26 20 6 -4 10 -2 10 4 0 20 70
27 88 9z"/>
<path d="M1337 423 c-2 -5 0 -53 4 -107 7 -85 11 -102 31 -121 19 -18 29 -20
63 -14 66 12 70 14 77 24 5 6 8 5 8 -2 0 -7 11 -13 25 -13 22 0 24 2 15 26 -6
14 -10 68 -10 120 0 80 -2 94 -16 94 -15 0 -16 -11 -9 -91 7 -92 7 -92 -21
-115 -27 -24 -84 -33 -84 -13 0 5 -4 8 -9 5 -12 -8 -34 20 -27 33 4 5 2 12 -4
16 -5 3 -10 42 -10 86 0 62 -3 79 -14 79 -8 0 -17 -3 -19 -7z"/>
</g>
</svg>
